<svg width="429" height="68" viewBox="0 0 429 68" fill="none" xmlns="http://www.w3.org/2000/svg">
<path d="M1 9.27037C39.8261 6.22637 92.7763 7.23087 102.684 9.26275C107.019 10.1516 110.568 12.2991 113.605 15.5866C124.183 27.0399 120.203 52.8603 126.534 59.4733C141.711 75.3247 182.543 59.0397 195.503 51.9243C220.719 38.0802 228.234 28.0822 267.182 12.6263C283.858 6.00841 307.271 5.7241 339.4 6.46986C373.296 7.25663 393.142 14.3386 396.947 17.3597C399.164 19.1206 398.241 24.399 398.241 22.2073C398.241 20.0156 398.241 10.975 399.496 6.06656C400.752 1.15813 403.263 0.655857 405.812 1.1505C416.744 3.27145 423.582 9.25511 426.633 12.2915C433.721 19.3436 406.398 26.4993 398.522 28.2876C396.63 28.7173 395.227 30.5478 395.204 30.3195C399.747 24.0032 403.811 17.9153 405.584 13.8668C406.353 11.8273 406.855 9.81826 410.416 3.18237" stroke="black" stroke-width="2" stroke-linecap="round"/>
</svg>
